<?xml version="1.0" encoding="UTF-8"?>
<!-- Generator: Adobe Illustrator 24.0.2, SVG Export Plug-In . SVG Version: 6.00 Build 0)  -->
<svg version="1.1" id="Layer_1" xmlns:cc="http://creativecommons.org/ns#" xmlns:dc="http://purl.org/dc/elements/1.1/" xmlns:rdf="http://www.w3.org/1999/02/22-rdf-syntax-ns#" xmlns:svg="http://www.w3.org/2000/svg" xmlns="http://www.w3.org/2000/svg" xmlns:xlink="http://www.w3.org/1999/xlink" x="0px" y="0px" viewBox="0 0 100 100" style="enable-background:new 0 0 100 100;" xml:space="preserve">
<style type="text/css">
	.st0{fill-rule:evenodd;clip-rule:evenodd;fill:#1A6AB2;}
	.st1{fill-rule:evenodd;clip-rule:evenodd;fill:#FFD611;}
</style>
<path class="st0" d="M79,90.7c-8.2,5.8-18.2,9.3-29,9.3c-8.1,0-15.7-1.9-22.4-5.3l-1.3-8l9.3-1.5C40.1,87,44.9,88,50,88  c7.9,0,15.3-2.4,21.4-6.6l-0.2,1.4l-1,6.5l6.4,1L79,90.7z"/>
<path class="st0" d="M100,50c0,13.7-5.5,26.1-14.4,35.1l-8-1.3l1.5-9.3c5.6-6.6,9-15.2,9-24.5c0-3.7-0.5-7.2-1.5-10.6l1.3,0.6l5.8,3  l3-5.8l1.1-2.2C99.2,39.7,100,44.8,100,50z"/>
<path class="st0" d="M94.4,27l-3.6,7.2L82.3,30c-6.5-10.5-18-17.5-31.1-18l1-1l4.6-4.7l-4.6-4.6L50.5,0C69.6,0.2,86.2,11.1,94.4,27z  "/>
<path class="st1" d="M25.3,80.2l-6.5,1l1,6.4l0.4,2.4C8,81,0,66.4,0,50c0-2.6,0.2-5.1,0.6-7.5l7.2-3.7l4.3,8.5  C12,48.2,12,49.1,12,50c0,12.2,5.8,23.1,14.7,30L25.3,80.2z"/>
<path class="st1" d="M47.6,6.4l-6.7,6.7c-12.4,3-22.4,12.1-26.7,24l-0.6-1.3l-3-5.8l-5.8,3l-2.2,1.1C8.4,16.8,23.5,3.7,41.9,0.7  L47.6,6.4z"/>
</svg>