<svg xmlns="http://www.w3.org/2000/svg" xmlns:xlink="http://www.w3.org/1999/xlink" viewBox="0 0 500 500"><defs><style>.cls-1{isolation:isolate;}.cls-2{opacity:0.2;fill:url(#linear-gradient);}.cls-3{fill:#145085;}.cls-4{fill:#0d3559;}.cls-5{fill:#ff6800;}.cls-6{fill:#a3a3a4;}.cls-7{fill:#1a6ab2;}.cls-8{fill:#ffa600;}.cls-9{fill:#ffca66;}.cls-10{fill:#ff9d66;}.cls-11{fill:#3c3c3b;opacity:0.29;}.cls-11,.cls-15,.cls-22{mix-blend-mode:multiply;}.cls-12{fill:#ebcfaa;}.cls-13{fill:#ddaf72;}.cls-14{fill:#e4bf8e;}.cls-15{fill:#a4a4a5;opacity:0.44;}.cls-16{fill:#efd9bb;}.cls-17{fill:#f3e2cc;}.cls-18{fill:#f2f2f2;opacity:0.8;}.cls-19,.cls-40{fill:none;}.cls-20{fill:#333;}.cls-21{fill:#5a6e7f;}.cls-22{fill:#d1e1f0;}.cls-23{fill:#ffefa0;}.cls-24{fill:#fdfdfd;}.cls-25{fill:#ffd611;}.cls-26{fill:#fff;}.cls-27{fill:#f7b97b;}.cls-28{fill:#071b2d;}.cls-29{fill:#f3a7a8;}.cls-30{fill:#051a2d;}.cls-31{fill:#5666af;}.cls-32{fill:#1f2f69;}.cls-33{fill:#a3c3e0;}.cls-34{fill:#c9a095;}.cls-35{fill:#e5beb1;}.cls-36{fill:#263d49;}.cls-37{fill:#172d3a;}.cls-38{fill:#d4f5ff;stroke-width:0.6309px;}.cls-38,.cls-40{stroke:#e0aa69;stroke-miterlimit:10;}.cls-39{fill:#e0aa69;}.cls-40{stroke-width:0.7594px;}.cls-41{fill:#fba569;}.cls-42{fill:#594847;}.cls-43{fill:#4888c1;}.cls-44{fill:#f2f0f0;}.cls-45{fill:#495f68;}.cls-46{fill:#394e54;}.cls-47{fill:#5a6f75;}</style><linearGradient id="linear-gradient" x1="-155.4432" y1="381.7627" x2="458.098" y2="158.7854" gradientUnits="userSpaceOnUse"><stop offset="0" stop-color="#d1e1f0" stop-opacity="0.4"/><stop offset="1" stop-color="#a3c3e0"/></linearGradient></defs><title>Mobile Scan</title><g class="cls-1"><g id="Layer_1" data-name="Layer 1"><path class="cls-2" d="M480.4185,261.1661c0,129.741-100.6774,170.6993-230.4185,170.6993S10.5844,390.9071,10.5844,261.1661,115.76,26.249,245.5015,26.249,480.4185,131.425,480.4185,261.1661Z"/><rect class="cls-3" x="176.0062" y="396.3381" width="119.6835" height="5.9247"/><rect class="cls-3" x="176.0062" y="368.5988" width="119.6835" height="5.9315"/><rect class="cls-4" x="176.0062" y="374.5303" width="196.6879" height="21.8078"/><rect class="cls-5" x="264.2408" y="358.156" width="9.4544" height="10.4427"/><path class="cls-6" d="M309.4169,366.014h-4.0208v-5.83h4.0208Zm-3.6182-.513h3.2224v-4.8036h-3.2224Z"/><rect class="cls-6" x="306.9086" y="361.5252" width="0.9996" height="3.163"/><path class="cls-6" d="M314.429,366.014h-4.0125v-5.83h4.0125Zm-3.6174-.513h3.2222v-4.8036h-3.2222Z"/><rect class="cls-6" x="311.9244" y="361.5252" width="0.996" height="3.163"/><path class="cls-6" d="M319.4419,366.014h-4.0133v-5.83h4.0133Zm-3.6211-.513h3.2252v-4.8036h-3.2252Z"/><rect class="cls-6" x="316.9373" y="361.5252" width="0.9958" height="3.163"/><rect class="cls-7" x="157.2999" y="368.5988" width="18.7063" height="5.9315"/><rect class="cls-7" x="157.2999" y="376.5879" width="18.7063" height="17.6925"/><rect class="cls-7" x="226.8979" y="376.5879" width="18.7026" height="17.6925"/><rect class="cls-8" x="283.5995" y="376.5879" width="18.6988" height="17.6925"/><rect class="cls-8" x="320.416" y="376.5879" width="17.0656" height="17.6925"/><rect class="cls-8" x="355.1996" y="376.5879" width="17.0664" height="17.6925"/><rect class="cls-9" x="302.2878" y="376.5879" width="9.4574" height="17.6925"/><rect class="cls-3" x="245.5015" y="376.5879" width="9.1867" height="17.6925"/><rect class="cls-3" x="175.908" y="376.5879" width="9.1867" height="17.6925"/><rect class="cls-9" x="337.4816" y="376.5879" width="9.4581" height="17.6925"/><rect class="cls-9" x="372.266" y="376.5879" width="9.4611" height="17.6925"/><rect class="cls-7" x="180.4995" y="368.5988" width="18.7063" height="5.9315"/><rect class="cls-7" x="203.6983" y="368.5988" width="18.7033" height="5.9315"/><rect class="cls-7" x="226.8979" y="368.5988" width="18.7026" height="5.9315"/><rect class="cls-7" x="250.0967" y="368.5988" width="18.7033" height="5.9315"/><rect class="cls-8" x="273.12" y="368.5988" width="18.7071" height="5.9315"/><rect class="cls-3" x="157.2999" y="374.5303" width="156.9641" height="2.0577"/><rect class="cls-7" x="157.2999" y="396.3381" width="18.7063" height="5.9247"/><rect class="cls-7" x="180.4995" y="396.3381" width="18.7063" height="5.9247"/><rect class="cls-7" x="203.6983" y="396.3381" width="18.7033" height="5.9247"/><rect class="cls-7" x="226.8979" y="396.3381" width="18.7026" height="5.9247"/><rect class="cls-7" x="250.0967" y="396.3381" width="18.7033" height="5.9247"/><rect class="cls-8" x="273.12" y="396.3381" width="18.7071" height="5.9247"/><rect class="cls-8" x="295.6897" y="368.5988" width="18.6988" height="5.9315"/><rect class="cls-8" x="295.6897" y="396.3381" width="18.6988" height="5.9247"/><rect class="cls-3" x="157.2999" y="394.2804" width="156.9641" height="2.0577"/><rect class="cls-9" x="302.2983" y="368.5988" width="79.4288" height="5.9315"/><rect class="cls-9" x="302.2983" y="396.3381" width="79.4288" height="5.9247"/><rect class="cls-10" x="302.1701" y="374.5303" width="79.557" height="2.0577"/><rect class="cls-10" x="302.1701" y="394.2804" width="79.557" height="2.0577"/><rect class="cls-11" x="157.2999" y="376.5879" width="27.7948" height="1.9482"/><rect class="cls-11" x="226.8979" y="376.5879" width="27.7903" height="1.9482"/><rect class="cls-11" x="283.5995" y="376.5879" width="28.1457" height="1.9482"/><rect class="cls-11" x="320.416" y="376.5879" width="26.5238" height="1.9482"/><rect class="cls-11" x="355.1996" y="376.5879" width="26.5275" height="1.9482"/><rect class="cls-12" x="237.4802" y="253.1017" width="28.7203" height="115.9706"/><rect class="cls-13" x="122.3297" y="253.1017" width="115.1505" height="115.9706"/><rect class="cls-14" x="135.2077" y="264.5508" width="89.4216" height="93.8672"/><rect class="cls-12" x="135.2077" y="264.5508" width="4.1186" height="84.5876"/><rect class="cls-15" x="222.5573" y="264.5508" width="2.072" height="93.8672"/><rect class="cls-16" x="240.8239" y="264.5508" width="23.4095" height="93.8672"/><rect class="cls-15" x="263.695" y="264.5508" width="0.5383" height="84.5876"/><polygon class="cls-12" points="146.039 358.418 141.841 358.489 128.177 353.902 222.433 259.646 224.629 276.6 224.629 279.828 146.039 358.418"/><polygon class="cls-13" points="137.748 363.481 126.564 352.296 220.82 258.024 232.012 269.226 137.748 363.481"/><polygon class="cls-15" points="261.473 358.489 262.302 358.489 265.168 350.567 242.032 259.646 240.992 272.49 241.044 278.469 261.473 358.489"/><rect class="cls-17" x="240.8239" y="264.5508" width="1.0839" height="93.9377"/><polygon class="cls-12" points="263.581 363.481 265.812 349.863 242.446 258.024 239.589 269.226 263.581 363.481"/><rect class="cls-12" x="254.4859" y="138.1192" width="28.7203" height="115.9887"/><rect class="cls-13" x="139.3263" y="138.1192" width="115.1595" height="115.9887"/><rect class="cls-14" x="152.1953" y="149.5846" width="89.4306" height="93.8672"/><rect class="cls-12" x="152.1953" y="149.5846" width="4.1295" height="84.5533"/><rect class="cls-15" x="239.554" y="149.5846" width="2.072" height="93.8672"/><rect class="cls-16" x="257.8205" y="149.5846" width="23.4185" height="93.8672"/><rect class="cls-15" x="280.6917" y="149.5846" width="0.5473" height="84.5533"/><polygon class="cls-12" points="163.027 243.452 158.828 243.506 145.167 238.936 239.429 144.664 241.626 161.633 241.626 164.862 163.027 243.452"/><polygon class="cls-13" points="154.753 248.497 143.552 237.314 237.816 143.058 249.018 154.26 154.753 248.497"/><polygon class="cls-15" points="278.479 243.506 279.29 243.506 282.166 235.603 259.029 144.664 257.989 157.524 258.032 163.505 278.479 243.506"/><rect class="cls-17" x="257.8205" y="149.5846" width="1.0857" height="93.9214"/><polygon class="cls-12" points="280.569 248.497 282.8 234.897 259.443 143.058 256.594 154.26 280.569 248.497"/><rect class="cls-12" x="367.8462" y="180.3103" width="28.7208" height="115.9706"/><rect class="cls-13" x="252.6957" y="180.3103" width="115.1505" height="115.9706"/><rect class="cls-14" x="265.5471" y="191.7594" width="89.4483" height="93.8672"/><rect class="cls-12" x="265.5471" y="191.7594" width="4.1367" height="84.5876"/><rect class="cls-15" x="352.9238" y="191.7594" width="2.0715" height="93.8672"/><rect class="cls-16" x="371.1809" y="191.7594" width="23.4095" height="93.8672"/><rect class="cls-15" x="394.061" y="191.7594" width="0.5293" height="84.5876"/><polygon class="cls-12" points="276.396 285.627 272.198 285.697 258.527 281.111 352.79 186.855 354.995 203.808 354.995 207.036 276.396 285.627"/><polygon class="cls-13" points="268.105 290.69 256.921 279.505 351.186 185.233 362.378 196.434 268.105 290.69"/><polygon class="cls-15" points="391.839 285.697 392.659 285.697 395.526 277.776 372.389 186.855 371.349 199.699 371.392 205.678 391.839 285.697"/><rect class="cls-17" x="371.1809" y="191.7594" width="1.0857" height="93.9377"/><polygon class="cls-12" points="393.938 290.69 396.16 277.071 372.796 185.233 369.954 196.434 393.938 290.69"/><rect class="cls-12" x="359.7768" y="295.0685" width="26.5455" height="107.1943"/><rect class="cls-13" x="253.3189" y="295.0685" width="106.4579" height="107.1943"/><rect class="cls-14" x="265.2149" y="305.6582" width="82.669" height="86.7693"/><rect class="cls-12" x="265.2149" y="305.6582" width="3.823" height="78.1795"/><rect class="cls-15" x="345.9732" y="305.6582" width="1.9107" height="86.7693"/><rect class="cls-16" x="362.8558" y="305.6582" width="21.64" height="86.7693"/><rect class="cls-15" x="383.9977" y="305.6582" width="0.4981" height="78.1795"/><polygon class="cls-12" points="275.233 392.427 271.356 392.487 258.72 388.254 345.852 301.11 347.884 316.804 347.884 319.777 275.233 392.427"/><rect class="cls-13" x="298.6528" y="286.7519" width="14.6349" height="123.2276" transform="translate(335.9484 -114.3197) rotate(45)"/><polygon class="cls-15" points="381.951 392.487 382.712 392.487 385.359 385.163 363.972 301.11 363.006 312.996 363.05 318.525 381.951 392.487"/><rect class="cls-17" x="362.8558" y="305.6582" width="0.9996" height="86.8285"/><polygon class="cls-12" points="383.887 397.107 385.949 384.519 364.353 299.624 361.718 309.971 383.887 397.107"/><rect class="cls-18" x="167.4237" y="174.835" width="57.2056" height="41.0161" rx="4.9311"/><path class="cls-19" d="M200.266,211.4262a.76.76,0,0,0,.8217.784.7428.7428,0,0,0,.8214-.7331c0-.4988-.3482-.7394-.9034-.8972A.8925.8925,0,0,0,200.266,211.4262Z"/><path class="cls-19" d="M200.38,209.4234c0,.4111.3106.632.7846.7584a.81.81,0,0,0,.6259-.7456.6384.6384,0,0,0-.6956-.6693A.6537.6537,0,0,0,200.38,209.4234Z"/><path class="cls-19" d="M209.7319,211.4262a.7609.7609,0,0,0,.8225.784.7424.7424,0,0,0,.821-.7331c0-.4988-.3478-.7394-.9037-.8972A.8926.8926,0,0,0,209.7319,211.4262Z"/><path class="cls-19" d="M209.8457,209.4234c0,.4111.3106.632.7845.7584a.8077.8077,0,0,0,.6249-.7456.6376.6376,0,0,0-.6949-.6693A.654.654,0,0,0,209.8457,209.4234Z"/><path class="cls-19" d="M189.9659,209.4479c0,.42.3212.6456.8115.7747a.83.83,0,0,0,.6486-.7623.6573.6573,0,0,0-.7208-.6847A.6729.6729,0,0,0,189.9659,209.4479Z"/><path class="cls-19" d="M180.2509,211.4956a.7827.7827,0,0,0,.8517.8014.7666.7666,0,0,0,.8516-.7494c0-.5106-.3609-.7563-.937-.9176A.9167.9167,0,0,0,180.2509,211.4956Z"/><path class="cls-19" d="M185.1671,209.4479c0,.42.32.6456.8123.7747a.83.83,0,0,0,.6478-.7623.6568.6568,0,0,0-.72-.6847A.6732.6732,0,0,0,185.1671,209.4479Z"/><path class="cls-19" d="M180.3684,209.4479c0,.42.3211.6456.8122.7747a.8284.8284,0,0,0,.6478-.7623.6564.6564,0,0,0-.72-.6847A.674.674,0,0,0,180.3684,209.4479Z"/><path class="cls-19" d="M205.1144,209.4234c0,.4111.3087.632.7823.7584a.8084.8084,0,0,0,.6256-.7456.638.638,0,0,0-.6949-.6693A.6519.6519,0,0,0,205.1144,209.4234Z"/><path class="cls-19" d="M185.0494,211.4956a.7822.7822,0,0,0,.8509.8014.7657.7657,0,0,0,.8512-.7494c0-.5106-.36-.7563-.9366-.9176A.9155.9155,0,0,0,185.0494,211.4956Z"/><path class="cls-19" d="M189.8481,211.4956a.7808.7808,0,0,0,.8506.8014.766.766,0,0,0,.8509-.7494c0-.5106-.3595-.7563-.9362-.9176A.9144.9144,0,0,0,189.8481,211.4956Z"/><path class="cls-19" d="M205,211.4262a.76.76,0,0,0,.8217.784.7426.7426,0,0,0,.82-.7331c0-.4988-.3456-.7394-.9027-.8972A.8921.8921,0,0,0,205,211.4262Z"/><rect class="cls-20" x="173.4799" y="178.8444" width="1.0809" height="31.5871"/><rect class="cls-20" x="175.6421" y="178.8444" width="1.0813" height="31.5871"/><rect class="cls-20" x="215.8472" y="178.8444" width="1.0791" height="31.5871"/><rect class="cls-20" x="218.009" y="178.8444" width="1.0809" height="31.5871"/><rect class="cls-20" x="178.3085" y="178.8444" width="3.3791" height="28.5619"/><rect class="cls-20" x="182.9042" y="178.8444" width="1.689" height="28.5619"/><rect class="cls-20" x="186.1474" y="178.8444" width="1.6898" height="28.5619"/><rect class="cls-20" x="190.1168" y="178.8444" width="3.9869" height="28.5619"/><rect class="cls-20" x="204.5795" y="178.8444" width="3.9869" height="28.5619"/><rect class="cls-20" x="209.9842" y="178.8444" width="3.9883" height="28.5619"/><rect class="cls-20" x="198.2269" y="178.8444" width="1.4714" height="28.5619"/><rect class="cls-20" x="194.8204" y="178.8444" width="0.7492" height="32.6833"/><rect class="cls-20" x="200.9313" y="178.8444" width="1.4692" height="28.5619"/><path class="cls-21" d="M179.6614,211.5737c0,.6135.5371,1.1371,1.4273,1.1371a1.3057,1.3057,0,0,0,1.4477-1.2215,1.1664,1.1664,0,0,0-.8575-1.0855v-.0192a1.0672,1.0672,0,0,0,.7-.9827,1.0936,1.0936,0,0,0-1.2377-1.0335,1.1851,1.1851,0,0,0-1.3146,1.1178,1.04,1.04,0,0,0,.6744.9438l.0051.019A1.2036,1.2036,0,0,0,179.6614,211.5737Zm.707-2.1258a.674.674,0,0,1,.74-.6723.6564.6564,0,0,1,.72.6847.8284.8284,0,0,1-.6478.7623C180.69,210.0935,180.3684,209.8678,180.3684,209.4479Zm.6488,1.1821c.5761.1613.937.407.937.9176a.7666.7666,0,0,1-.8516.7494.7827.7827,0,0,1-.8517-.8014A.9167.9167,0,0,1,181.0172,210.63Z"/><path class="cls-21" d="M184.46,211.5737c0,.6135.5373,1.1371,1.4276,1.1371a1.3049,1.3049,0,0,0,1.447-1.2215,1.1655,1.1655,0,0,0-.8575-1.0855v-.0192a1.0674,1.0674,0,0,0,.7007-.9827,1.0933,1.0933,0,0,0-1.2374-1.0335,1.1867,1.1867,0,0,0-1.3168,1.1178,1.0427,1.0427,0,0,0,.6745.9438l.0066.019A1.2034,1.2034,0,0,0,184.46,211.5737Zm.7072-2.1258a.6732.6732,0,0,1,.74-.6723.6568.6568,0,0,1,.72.6847.83.83,0,0,1-.6478.7623C185.4876,210.0935,185.1671,209.8678,185.1671,209.4479Zm.6478,1.1821c.5768.1613.9366.407.9366.9176a.7657.7657,0,0,1-.8512.7494.7822.7822,0,0,1-.8509-.8014A.9155.9155,0,0,1,185.8149,210.63Z"/><path class="cls-21" d="M189.2586,211.5737c0,.6135.5374,1.1371,1.4273,1.1371a1.3053,1.3053,0,0,0,1.4466-1.2215,1.1658,1.1658,0,0,0-.8578-1.0855v-.0192a1.0684,1.0684,0,0,0,.7007-.9827,1.093,1.093,0,0,0-1.237-1.0335,1.187,1.187,0,0,0-1.3164,1.1178,1.0408,1.0408,0,0,0,.6748.9438l.0058.019A1.2018,1.2018,0,0,0,189.2586,211.5737Zm.7073-2.1258a.6729.6729,0,0,1,.7393-.6723.6573.6573,0,0,1,.7208.6847.83.83,0,0,1-.6486.7623C190.2871,210.0935,189.9659,209.8678,189.9659,209.4479Zm.6475,1.1821c.5767.1613.9362.407.9362.9176a.766.766,0,0,1-.8509.7494.7808.7808,0,0,1-.8506-.8014A.9144.9144,0,0,1,190.6134,210.63Z"/><path class="cls-21" d="M199.6984,211.5022c0,.6005.5176,1.1121,1.3766,1.1121a1.2653,1.2653,0,0,0,1.3973-1.1945,1.1382,1.1382,0,0,0-.8286-1.0612V210.34a1.0438,1.0438,0,0,0,.6766-.9607,1.0608,1.0608,0,0,0-1.1943-1.0109,1.15,1.15,0,0,0-1.2691,1.0933,1.0181,1.0181,0,0,0,.65.9224l.0062.0189A1.1739,1.1739,0,0,0,199.6984,211.5022Zm.6813-2.0788a.6537.6537,0,0,1,.7149-.6565.6384.6384,0,0,1,.6956.6693.81.81,0,0,1-.6259.7456C200.69,210.0554,200.38,209.8345,200.38,209.4234Zm.626,1.1565c.5552.1578.9034.3984.9034.8972a.7428.7428,0,0,1-.8214.7331.76.76,0,0,1-.8217-.784A.8925.8925,0,0,1,201.0057,210.58Z"/><path class="cls-21" d="M204.4308,211.5022c0,.6005.5188,1.1121,1.3777,1.1121a1.2649,1.2649,0,0,0,1.3966-1.1945,1.1377,1.1377,0,0,0-.8286-1.0612V210.34a1.0446,1.0446,0,0,0,.6773-.9607,1.0613,1.0613,0,0,0-1.195-1.0109,1.1493,1.1493,0,0,0-1.2687,1.0933,1.0161,1.0161,0,0,0,.65.9224l.0054.0189A1.1729,1.1729,0,0,0,204.4308,211.5022Zm.6836-2.0788a.6519.6519,0,0,1,.713-.6565.638.638,0,0,1,.6949.6693.8084.8084,0,0,1-.6256.7456C205.4231,210.0554,205.1144,209.8345,205.1144,209.4234Zm.6248,1.1565c.5571.1578.9027.3984.9027.8972a.7426.7426,0,0,1-.82.7331.76.76,0,0,1-.8217-.784A.8921.8921,0,0,1,205.7392,210.58Z"/><path class="cls-21" d="M209.1647,211.5022c0,.6005.518,1.1121,1.377,1.1121a1.2653,1.2653,0,0,0,1.3966-1.1945,1.1388,1.1388,0,0,0-.8283-1.0612V210.34a1.0443,1.0443,0,0,0,.677-.9607,1.0608,1.0608,0,0,0-1.1943-1.0109,1.15,1.15,0,0,0-1.27,1.0933,1.0186,1.0186,0,0,0,.65.9224l.0066.0189A1.1731,1.1731,0,0,0,209.1647,211.5022Zm.681-2.0788a.654.654,0,0,1,.7145-.6565.6376.6376,0,0,1,.6949.6693.8077.8077,0,0,1-.6249.7456C210.1563,210.0554,209.8457,209.8345,209.8457,209.4234Zm.626,1.1565c.5559.1578.9037.3984.9037.8972a.7424.7424,0,0,1-.821.7331.7609.7609,0,0,1-.8225-.784A.8926.8926,0,0,1,210.4717,210.58Z"/><ellipse class="cls-22" cx="250" cy="427.8652" rx="250" ry="19.6262"/><path class="cls-23" d="M370.0474,401.511c5.1761-20.1648,9.4538-52.2,18.4243-50.8593s2.5206,15.0395,9.29,14.88,8.1785-9.877,9.2648-27.4251,16.0115-24.4959,23.4816-20.9544-8.8935,26.2058-2.9475,32.2058,9.993-24.0266,26.6728-27.4364,22.2519.9973,14.0946,10.6429-12.9634,16.74-3.7824,18.62,24.8554-4.74,25.2459,8.0262-21.2012,4.5548-23.2929,16.0545,15.4964,16.6168,14.4851,23.4091-16.823,7.8134-24.9227-.2024-14.396-15.8666-19.9515-9.1005,11.7059,9.7747,12.2623,19.3085-28.4372,1.2946-39.3711-6.9806-10.8211-.99-5.5192,4.9507c9.156,10.26-5.0745,8.2727-14.0553,1.7014C380.2952,401.67,366.9523,413.5685,370.0474,401.511Z"/><path class="cls-24" d="M388.2405,383.3158a5.9752,5.9752,0,0,1-.757-2.561c-.0191-.2055-.0409-.4063-.0658-.6-.1834-1.4116-.3192-2.8259-.3988-4.2066a34.2229,34.2229,0,0,1,.353-9.4208.604.604,0,1,1,1.1788.2642,33.2434,33.2434,0,0,0-.3272,9.0868c.0777,1.35.2112,2.7379.3925,4.1208.0263.2037.0471.4163.07.6363a5.3646,5.3646,0,0,0,.4874,1.9191,95.4806,95.4806,0,0,1,8.0228-5.9222c.01-.0088.0085-.0247.0193-.0328.0147-.0115.0344-.0037.05-.0133a100.5612,100.5612,0,0,1,9.2232-5.5222,80.1216,80.1216,0,0,1,10.2337-4.3279,10.361,10.361,0,0,1-2.2862-5.3025,49.443,49.443,0,0,1,.685-20.9392.604.604,0,0,1,1.1711.2966,48.2572,48.2572,0,0,0-.671,20.4243c.3447,1.8546.911,3.8749,2.3319,5.0675.296-.1031.639-.2419.9272-.3411a164.06,164.06,0,0,1,27.58-7.2311,33.4013,33.4013,0,0,1,1.3234-9.8681,33.9431,33.9431,0,0,1,1.4528-3.4025l2.4858-5.271a.605.605,0,1,1,1.094.5169l-2.4857,5.271a32.0194,32.0194,0,0,0-1.4036,3.2791,31.66,31.66,0,0,0-1.2488,9.2758,82.7157,82.7157,0,0,1,20.6774-.5973.6038.6038,0,0,1-.1218,1.2013l-.0117-.0011c-10.6933-1.198-21.383.2462-31.44,2.7091a6.8347,6.8347,0,0,0,.6708,2.1236c1.8416,4.045,3.7438,8.2281,6.8013,11.5106a27.5511,27.5511,0,0,0,3.504,3.1125,41.9,41.9,0,0,0,11.908,6.3468.6038.6038,0,0,1-.2494,1.173.5756.5756,0,0,1-.1394-.0293,43.1369,43.1369,0,0,1-12.2513-6.53,28.94,28.94,0,0,1-3.6571-3.25c-3.191-3.4273-5.1347-7.7018-7.0133-11.8331a8.5351,8.5351,0,0,1-.7318-2.3216c-5.6986,1.4463-11.1959,3.1887-16.3509,4.9591a88.1489,88.1489,0,0,0-12.2239,5.0476,99.5284,99.5284,0,0,0-8.5841,5.1015,66.1661,66.1661,0,0,0,10.5558,11.52c3.1831,2.5812,8.2125,5.741,14.2313,6.2919a1.795,1.795,0,0,0,.322.0271.6037.6037,0,0,1-.1007,1.2032c-.1082-.0076-.2186-.0176-.3266-.0275a28.0547,28.0547,0,0,1-14.8845-6.5553,67.6987,67.6987,0,0,1-10.8043-11.7866c-12.7072,8.5633-22.657,19.5756-28.45,31.8363a.6.6,0,0,1-.6.3429.5859.5859,0,0,1-.2032-.0564.6.6,0,0,1-.2865-.803A78.5409,78.5409,0,0,1,388.2405,383.3158Z"/><path class="cls-25" d="M367.5137,402.6759c17.6436-9.63,57.8282-13.2131,58.349-26.4821s-10.6545-19.97-25.4837-16.3113c0,0,7.0186-15.3254,21.7976-17.5739s28.3659-5.878,28.5665-11.5169-13.0762-10.668-20.767-7.9452c0,0,.1229-19.15,14.656-20.94,17.6806-2.1778,23.4823-10.4322,18.8316-14.4671s-28.6267-13.6975-37.4018,4.4857-10.7463,19.78-10.7463,19.78-6.9321.35-5.5832-12.938-9.5657-19.2388-17.9723-3.1407,4.5615,25.0771,3.49,36.0389-12.9839,33.1949-16.4629,15.3788-24.0409-21.9789-22.2031,3.6636S367.5137,402.6759,367.5137,402.6759Z"/><path class="cls-26" d="M429.1393,331.4821a.864.864,0,0,0-.8448-.8846l-8.6641-.1968c-2.2476-.0515-4.798-.11-7.1008.9109a18.0228,18.0228,0,0,0-3.0176,1.8513,12.39,12.39,0,0,1-3.2033,1.817c14.4745-20.4809,29.3857-37.9579,37.9144-42.49a.8653.8653,0,0,0-.8128-1.5278c-8.0107,4.2582-21.5712,19.7575-35.1754,38.479l-.0122-.3107a38.4881,38.4881,0,0,0-4.23-15.7489l-.2977-.567a11.5589,11.5589,0,0,1-1.3758-3.4219,11.72,11.72,0,0,1,.6112-4.7547.8643.8643,0,0,0-1.6688-.4507,10.0183,10.0183,0,0,0,.906,9.434l.2908.5551a36.7742,36.7742,0,0,1,4.0387,15.0364l.0317.7987c.0188.53.0381,1.06.0781,1.5872.0019.0246.02.042.0236.066-12.163,16.9609-24.1687,36.23-32.1162,52.1363.2126-3.1294-1.1361-5.9452-2.4514-8.6681a28.8255,28.8255,0,0,1-2.0049-4.8854,27.0592,27.0592,0,0,1-.5767-7.2606l.1325-13.1a.8642.8642,0,1,0-1.7283-.0184l-.1325,13.1a28.36,28.36,0,0,0,.6358,7.7265,30.0316,30.0316,0,0,0,2.1172,5.1909c1.2862,2.6616,2.502,5.1769,2.273,8.0651a3.2861,3.2861,0,0,0,.4712,2.4172,116.1546,116.1546,0,0,0-6.5635,16.0572.864.864,0,0,0,.459,1.0325.9606.9606,0,0,0,.1178.0456.8643.8643,0,0,0,1.0782-.5768,134.17,134.17,0,0,1,9.0918-21.1206.8488.8488,0,0,0,.6266-.4225c1.3824-2.5,4.3793-4.2914,8.2213-4.9142a42.6234,42.6234,0,0,1,6.3778-.3745c1.4094-.0126,2.8188-.0251,4.2216-.1241,4.5766-.3227,8.051-1.665,10.3282-3.9884a.8649.8649,0,0,0-1.2364-1.21c-1.9692,2.0132-5.0706,3.1817-9.2144,3.4731-1.3671.0972-2.7413.109-4.1155.1207a43.7573,43.7573,0,0,0-6.6375.3976,15.6434,15.6434,0,0,0-6.0285,2.2355,428.1724,428.1724,0,0,1,24.983-40.0971c2.1361.0438,3.8775-1.1419,5.5521-2.3273a16.2992,16.2992,0,0,1,2.7215-1.6823c1.9459-.8658,4.2913-.81,6.3591-.7628l8.6641.1968A.8636.8636,0,0,0,429.1393,331.4821Z"/><ellipse class="cls-22" cx="123.3833" cy="440.0625" rx="67.1746" ry="9.4445"/><path class="cls-27" d="M101.6151,314.8962l10.0314,8.6307-8.7-1.0273c12.82,65.6746,54.3552,107.6071,61.3984,62.32a77.552,77.552,0,0,0-1.5-29.5079l-5.2557,4.2822,3.0025-12.4567c-14.6569-46.2448-59.8459-87.6343-59.8459-87.6343A195.0262,195.0262,0,0,0,101.6151,314.8962Z"/><path class="cls-26" d="M156.2514,403.2781l-20.9706-58.3737c-3.5407-9.712-6.8661-19.5-10.6737-29.1313-3.8182-9.6038-8.3835-19.0176-14.6391-27.2731,6.08,8.3865,10.425,17.8539,14.0314,27.5088,3.5924,9.6757,6.7145,19.54,10.05,29.3234l19.7391,58.8015Z"/><path class="cls-25" d="M146.3866,399.0223c-1.8589-19.9884-1.0551-51.1425-9.8007-51.2317s-4.69,13.9366-11.111,12.7538-6.2837-10.65-4.6468-27.5238-11.5166-25.7618-19.1685-23.5268,4.4787,26.3062-2.0963,31.1142-5.8575-24.3989-21.22-30.1847-21.3395-2.4379-15.0407,7.9882,9.7951,17.9129.7671,18.3049-22.9451-8.2971-25.26,3.799,19.4939,7.5645,19.7349,18.8327-17.2849,13.463-17.356,20.0844,14.829,10.0006,23.7616,3.6012,16.1229-12.9162,20.3827-5.628S72.698,384.931,70.7168,393.9241s26.88,5.5617,38.5507-.6533,10.4544.7044,4.5017,5.5543c-10.28,8.3754,3.5724,8.6495,13.124,3.76C136.6048,397.6131,147.4981,410.9742,146.3866,399.0223Z"/><path class="cls-24" d="M131.8335,378.9277a5.7612,5.7612,0,0,0,1.1106-2.3233c.0495-.1927.1009-.3807.1541-.5617.3895-1.3161.7341-2.6421,1.02-3.9446a32.9963,32.9963,0,0,0,1.098-9.024.5824.5824,0,1,0-1.1626.0721,32.0615,32.0615,0,0,1-1.0717,8.7021c-.28,1.2734-.6179,2.5747-1.001,3.8639-.0561.19-.1083.3893-.1632.5952a5.1748,5.1748,0,0,1-.7562,1.7532,92.0662,92.0662,0,0,0-6.7376-6.86c-.0085-.01-.0043-.0248-.0134-.0342-.0122-.0131-.0322-.0088-.0454-.02a96.96,96.96,0,0,0-7.9414-6.6622,77.2447,77.2447,0,0,0-9.0854-5.6787,9.9908,9.9908,0,0,0,2.984-4.7009,47.6766,47.6766,0,0,0,2.5355-20.0421.5825.5825,0,0,0-1.16.1042,46.5324,46.5324,0,0,1-2.47,19.55c-.6106,1.7134-1.4573,3.5508-2.9919,4.47-.2661-.1433-.5716-.3277-.8309-.466a158.1919,158.1919,0,0,0-25.16-11.0839,32.2073,32.2073,0,0,0,.242-9.5976,32.7032,32.7032,0,0,0-.8653-3.4609L77.9566,328.18a.5834.5834,0,0,0-1.12.3256l1.5644,5.3974a30.8827,30.8827,0,0,1,.8373,3.3359,30.5294,30.5294,0,0,1-.223,9.0222,79.7652,79.7652,0,0,0-19.5975-3.7165.5822.5822,0,0,0-.067,1.1624l.0114.0008c10.3642.4872,20.3227,3.49,29.5241,7.3657a6.5891,6.5891,0,0,1-.962,1.92c-2.3692,3.5712-4.8174,7.2647-8.2283,9.9247a26.5726,26.5726,0,0,1-3.81,2.43,40.41,40.41,0,0,1-12.3047,4.2305.5822.5822,0,0,0,.059,1.1548.5566.5566,0,0,0,.1372-.0067,41.5946,41.5946,0,0,0,12.6593-4.3524,27.9152,27.9152,0,0,0,3.977-2.5376c3.56-2.7776,6.0615-6.5518,8.4792-10.1994a8.2334,8.2334,0,0,0,1.05-2.0992c5.2059,2.2446,10.175,4.74,14.8139,7.211a84.991,84.991,0,0,1,10.8709,6.667,95.9761,95.9761,0,0,1,7.3969,6.1644,63.8162,63.8162,0,0,1-11.8046,9.3621c-3.4239,1.9731-8.6937,4.2162-14.5085,3.8244a1.7379,1.7379,0,0,1-.3107-.0232.5822.5822,0,0,0-.0873,1.161c.1042.0093.2108.0165.3152.0235a27.0524,27.0524,0,0,0,15.1705-3.9758,65.2785,65.2785,0,0,0,12.0818-9.5782c10.7959,10.0883,18.5934,22.0886,22.2428,34.6447a.5789.5789,0,0,0,.5188.4178.5635.5635,0,0,0,.2021-.0228.5787.5787,0,0,0,.395-.7209A75.7346,75.7346,0,0,0,131.8335,378.9277Z"/><path class="cls-4" d="M98.7981,297.2391a136.0657,136.0657,0,0,0,1.8,30.79l-.806,42.14L93.54,430.6076h11.5045l14.7193-60.5518,4.1668-48.5407,8.6429,50.38,1.1656,59.7169,10.8737-1.0045,8.0136-67.2741-8.5192-76.16Z"/><path class="cls-28" d="M93.54,430.6076l-2.5866,14.1815h26.5541a13.2587,13.2587,0,0,0-7.5127-7.714c-6.0933-2.6658-4.95-9.21-4.95-9.21Z"/><path class="cls-28" d="M133.9225,430.6076l-2.5866,14.1815H157.89a13.2591,13.2591,0,0,0-7.5128-7.714c-6.0932-2.6658-4.95-9.21-4.95-9.21Z"/><path class="cls-29" d="M119.1032,232.4021c2.8533-2.4075,4.3681-6.2722,5.2365-10.3542l9.384,2.3446c-1.2214,4.3429-2.2975,8.4031-.7874,11.9181Z"/><path class="cls-29" d="M119.9474,224.4181c-1.0261,1.55,12.518,6.6453,16.51,4.1884,3.9666-2.4411,6.9381-22.385,2.3324-27.9732l-6.47-1.4893a12.0582,12.0582,0,0,0-14.5441,14.0389Z"/><path class="cls-7" d="M98.7744,311.9031c4.15,6.19,40.7208,4.2735,49.1732-2.1316-4.836-17.9782,1.8254-40.3906-.45-68.4167-6.6166-7.18-29.1139-12.1755-39.1225-6.7853C99.1451,239.656,97.8677,292.0515,98.7744,311.9031Z"/><path class="cls-30" d="M131.6507,211.3531c11.0208.7229,8.2152-2.4067,10.5812-7.62,3.0627-6.7483-5.2751-7.0515-21.106-4.3033-12.6513,2.1962-9.0811,21.0826-2.5671,25.7421,7.3836,5.2814,10.2732,2.3446,9.596-1.5063s-6.6428-6.204-2.8615-8.29,5.4386,3.994,5.4386,3.994S128.8019,211.1662,131.6507,211.3531Z"/><path class="cls-31" d="M189.2519,213.2122l-9.8068-.2369a.9959.9959,0,0,1-.9682-.8549l-2.4833-17.3224c-.0558-.4721.7056-1.0192,1.1846-1.0192h10.1536a.9959.9959,0,0,1,.9682.8549l2.0651,17.4867C190.4209,212.5926,189.7309,213.2122,189.2519,213.2122Z"/><path class="cls-32" d="M187.7677,195.0958l2.04,17.2744a.7379.7379,0,0,1-.6625.84h-.0045l-.0014.0015-.0366.0015c-.0167.0015-.0366.0015-.0519.0015H179.0191a.9829.9829,0,0,1-.9478-.784c-.0038-.02-.0077-.0392-.01-.06l-2.04-17.2744a.615.615,0,0,1-.0043-.0756l-.0018-.0151.0007-.0075.0006-.0075a.7367.7367,0,0,1,.0136-.1315.0556.0556,0,0,1,.0015-.0136l.0008-.006.0013-.0015.0032-.0121.0014-.0015a.1168.1168,0,0,1,.0077-.0257.6925.6925,0,0,1,.3444-.4441l.0014-.0015.0042-.003.0014-.0015.0042-.0031.0014-.0015.0014-.0015a.8073.8073,0,0,1,.3754-.0906h10.0317A.9843.9843,0,0,1,187.7677,195.0958Z"/><path class="cls-26" d="M187.1512,195.7376l1.844,15.6149a.3684.3684,0,0,1-.3768.42h-9.51a.4943.4943,0,0,1-.4743-.42l-1.844-15.6149a.3681.3681,0,0,1,.375-.42h9.51A.49.49,0,0,1,187.1512,195.7376Z"/><path class="cls-26" d="M182.5783,194.8316a.2439.2439,0,0,1-.2493.2781.3241.3241,0,0,1-.315-.2781.2439.2439,0,0,1,.2493-.278A.3241.3241,0,0,1,182.5783,194.8316Z"/><path class="cls-29" d="M194.2222,215.046l-3.6788,8.8431c-4.688,12.3846-10.2286,29.0247-12.7518,30.6054-5.1111,2.328-15.6787,2.2346-25.87,2.3038L144.5367,240.64l24.4618,3.1683,15.08-23.42,5.0973-7.8758Z"/><path class="cls-29" d="M188.5734,210.2619l-.7023-2.4624c.1509-1.5918,1.0184-1.2305,1.9184-.3716l-.7913-5.0227s3.6271,1.5484,4.2707,4.2617c-.0157,1.6372,2.4157,6.1538.95,8.3611l-5.0394-2.513Z"/><path class="cls-7" d="M169.7312,256.7983c-.6938.0583-14.6158,2.4634-22.9547,2.6174l-3.07-21.014,23.1637,4.0344A16.36,16.36,0,0,1,169.7312,256.7983Z"/><path class="cls-30" d="M138.8138,201.6259c1.1694,1.655.8013,7.1395.8013,7.1395a19.3263,19.3263,0,0,0-4.3325-5.5157c-.2217-.1978-.083-1.1856-.083-1.1856Z"/><path class="cls-30" d="M117.6944,214.3812c4.13-6.6136,10.2264-4.55,14.921-6.9422a3.8033,3.8033,0,0,1-3.0884-.622s11.7725,2.1932,15.0917-4.7455-4.04-10.2827-7.6245-9.6529c0,0,4.5011.958,3.68,4.468s-13.3911-8.2459-23.344,2.6716c-9.8726,10.8293-.844,16.7074-.844,16.7074l2.2774,1.7822Z"/><circle class="cls-33" cx="112.3952" cy="109.815" r="5.7352"/><circle class="cls-33" cx="369.5914" cy="185.1462" r="3.4377" transform="translate(-22.6673 315.5686) rotate(-45)"/><circle class="cls-33" cx="68.3305" cy="236.5356" r="2.9015"/><circle class="cls-33" cx="172.2835" cy="78.6914" r="2.9015" transform="translate(-16.9996 71.9199) rotate(-22.5)"/><circle class="cls-33" cx="434.3785" cy="112.7165" r="2.9015" transform="translate(258.9566 525.7744) rotate(-81.5363)"/><path class="cls-26" d="M22.7417,128.8964l23.6568-24.7676,18.6668,21.5587-.0809.1093L44.808,153.1135Zm23.6445-24.263-23.18,24.2685,21.5743,23.6773,19.85-26.8749Z"/><polygon class="cls-26" points="22.965 128.73 45.189 127.617 46.223 104.374 46.562 104.389 45.514 127.94 22.982 129.069 22.965 128.73"/><polygon class="cls-26" points="45.187 127.625 64.83 125.527 64.866 125.865 45.516 127.932 44.571 152.422 44.232 152.409 45.187 127.625"/><path class="cls-26" d="M44.9761,132.1909a4.4282,4.4282,0,1,1,4.7877-4.037A4.4283,4.4283,0,0,1,44.9761,132.1909Z"/><circle class="cls-26" cx="46.2307" cy="106.2812" r="4.4283"/><path class="cls-26" d="M63.1488,131.0622a4.7765,4.7765,0,1,1,5.1642-4.3545A4.7766,4.7766,0,0,1,63.1488,131.0622Z"/><circle class="cls-26" cx="44.4372" cy="151.4423" r="4.7765" transform="translate(-113.3694 153.9916) rotate(-74.5724)"/><circle class="cls-26" cx="23.4806" cy="128.9422" r="4.7766" transform="translate(-77.5905 45.5031) rotate(-40.1381)"/><path class="cls-26" d="M421.974,174.0547l8.4356,11.0915,4.9785-3.7863-8.4356-11.0916Zm4.55.8162a.9574.9574,0,1,1,.1825-1.3415A.9533.9533,0,0,1,426.5238,174.8709Z"/><path class="cls-26" d="M436.6924,180.3689l7.6417-5.8118a6.2047,6.2047,0,0,0,1.1826-8.6947l-3.2369-4.256h0a3.0943,3.0943,0,0,0,.59-4.3362h0a3.0943,3.0943,0,0,0-4.3361-.59l-6.2937,4.8939-.6285-5.0646a2.7951,2.7951,0,0,0-4.3228-2.0316l-.04.03,1.4827,15.394Z"/><path class="cls-22" d="M421.67,467.6007c0,2.2242-21.8907,4.0271-48.8942,4.0271s-48.8939-1.8029-48.8939-4.0271,21.8906-4.0275,48.8939-4.0275S421.67,465.3762,421.67,467.6007Z"/><polygon class="cls-34" points="360.66 255.7 360.773 274.284 361.896 283.727 354.516 285.657 345.941 288.07 346.983 274.338 347.489 260.299 360.66 255.7"/><path class="cls-35" d="M357.1311,224.3605c9.8441,2.3033,9.459,8.7362,9.459,8.7362a54.8369,54.8369,0,0,1,.2408,9.69,3.3617,3.3617,0,0,1,4.0686-.9791c3.3392,1.4213.665,11.4268-4.4337,10.4719a24.749,24.749,0,0,1-1.9445,6.9227c-1.4891,2.8341-7.8879,7.0829-13.5,7.6693s-12.6957-2.4708-13.1051-8.72c-.5676-8.6568.9972-27.29.9972-27.29S340.83,220.5462,357.1311,224.3605Z"/><path class="cls-36" d="M360.667,229.6558c2.6666.037,6.866-.7665,9.5331-.78-.0033-.2535,0,1.8563-.0074,1.8746-.4629,1.0886-.5876,10.979-.5876,10.979-2.6839.0756-2.6493,2.1182-2.6493,2.1182l-.4425,4.544-2.6586-.3082.0251-9.6405a5.0853,5.0853,0,0,1-2.3533-2.4911S361.0458,231.38,360.667,229.6558Z"/><path class="cls-37" d="M350.5663,234.6568a18.7833,18.7833,0,0,0,4.904.8414,9.3148,9.3148,0,0,0,2.3521-.2483,24.0717,24.0717,0,0,0,2.4549-.7446,5.2085,5.2085,0,0,1-2.0651,1.81,5.71,5.71,0,0,1-2.754.6363,6.6356,6.6356,0,0,1-2.7313-.62A5.6081,5.6081,0,0,1,350.5663,234.6568Z"/><path class="cls-37" d="M346.3917,237.72a9.4184,9.4184,0,0,0-3.8585-1.1272,4.9139,4.9139,0,0,0-1.828.3342,10.225,10.225,0,0,0-.9468.398c-.3231.1531-.6293.3462-1.006.4929a5.4843,5.4843,0,0,1,.5774-1.013,4.3688,4.3688,0,0,1,.8638-.819,3.8416,3.8416,0,0,1,2.3469-.7653,4.22,4.22,0,0,1,2.335.7352A4.0892,4.0892,0,0,1,346.3917,237.72Z"/><path class="cls-36" d="M348.6056,251.7712s7.9587-1.4924,9.1731.879,1.6053,4.9557,3.8222,4.0458S363.8,236.9068,363.8,236.9068l2.8793,6.3043s4.8018,24.9949-11.2183,25.4721c-16.8022.5-19.2043-4.08-17.635-12.46,0,0,1.8431.8656,2.7858-1.3928S339.7779,250.5559,348.6056,251.7712Z"/><path class="cls-26" d="M345.7976,256.629l9.3577-.3518S352.2013,252.5568,345.7976,256.629Z"/><path class="cls-36" d="M370.1927,230.75s1.5859-8.09-5.7577-7.5515a20.0621,20.0621,0,0,0-15.7821-7.179l4.3324,2.3446s-5.9263-3.7518-16.1808-.3158a5.6768,5.6768,0,0,0,4.7972,3.9571s-4.703-.7752-5.7707-1.6252c0,0,.1885,6.3643,3.7318,7.8733s16.9987-4.1425,21.6578,2.1907,8.1368-.6341,8.1368-.6341"/><path class="cls-38" d="M360.4574,237.9822l-10.9379.8709s-.436,8.6631,6.77,8.014S360.4574,237.9822,360.4574,237.9822Z"/><polygon class="cls-39" points="349.124 238.511 361.777 237.378 362.104 238.741 349.374 239.615 349.124 238.511"/><path class="cls-38" d="M336.4039,239.2141l10.4791-.278s1.2,9.4743-6.0231,9.0365S336.4039,239.2141,336.4039,239.2141Z"/><polygon class="cls-39" points="347.254 238.533 335.065 238.649 334.783 240.021 347.053 239.693 347.254 238.533"/><polygon class="cls-34" points="349.093 250.848 347.817 240.123 343.707 249.547 349.093 250.848"/><polygon class="cls-39" points="362.081 238.74 370.71 241.915 370.653 240.694 361.777 237.378 362.081 238.74"/><path class="cls-40" d="M349.7333,240.6988a2.3755,2.3755,0,0,0-2.7916.04"/><polygon class="cls-41" points="357.255 446.671 359.336 461.489 353.31 463.469 350.252 447.613 357.255 446.671"/><path class="cls-28" d="M349.7719,454.8286a20.25,20.25,0,0,1-8.993,5.8987c-5.4646,1.5945-10.3879,3.5824-9.9213,6.55,0,0,8.26,3.442,21.4459-.8211l.0272,1.2586,8.7068-.5125-.2252-10.4132-7.23.5988.5141-1.04Z"/><path class="cls-42" d="M346.531,466.7133c-11.8358,2.9823-14.9219-.0133-15.6215-.212a1.8335,1.8335,0,0,0-.0519.7758s8.26,3.442,21.4459-.8211l.0272,1.2586,8.7068-.5125-.0448-2.0771C357.8854,465.3546,355.2574,464.5141,346.531,466.7133Z"/><polygon class="cls-41" points="386.49 447.063 386.161 462.008 392.382 463.341 393.56 447.26 386.49 447.063"/><path class="cls-28" d="M394.8838,454.3809a20.5692,20.5692,0,0,0,9.6293,4.9139c5.6179,1.0084,10.7437,2.4647,10.6284,5.4629,0,0-7.805,4.2916-21.4093,1.4453l.1208,1.2538-8.7131.4087-.9979-10.3722,7.2551-.1675-.6331-.98Z"/><path class="cls-42" d="M399.499,465.85c12.1123,1.7158,14.8277-1.5866,15.5-1.8576a1.8477,1.8477,0,0,1,.1426.7654s-7.805,4.2916-21.4093,1.4453l.1208,1.2538-8.7131.4087-.199-2.0687C388.0558,465.6972,390.5688,464.5848,399.499,465.85Z"/><path class="cls-4" d="M335.1556,328.9273S325.9115,391.0244,347.5,452.2957c0,0,6.6456,4.2709,12.4309-.328,0,0-7.603-58.9047-5.2225-93.7513l4.6373.6725s11.5976,30.1914,12.84,38.4275,8.9186,52.9312,10.7716,56.6237c0,0,9.514,2.4063,12.209-2.41,0,0-2.4124-34.4478-3.2852-49.0281-.6483-10.83-14.255-64.1108-14.255-64.1108Z"/><path class="cls-43" d="M377.733,336.4346s-22.9671,9.5854-44.3187,3.2407c0,0-3.884-36.9714-5.9424-59.3853a107.5,107.5,0,0,1,25.3834-5.55l1.754,4.8173,1.0908-5.0037s19.982.956,27.5524,2.523C383.2525,277.0762,379.7683,319.2189,377.733,336.4346Z"/><polygon class="cls-7" points="366.302 275.088 359.757 281.502 355.7 274.553 362.879 270.703 366.302 275.088"/><polygon class="cls-7" points="342.321 276.163 347.956 281.66 352.851 274.693 345.126 271.839 342.321 276.163"/><path class="cls-7" d="M327.4719,280.29s-9.1256,21.1529-13.1591,32.7081a18.99,18.99,0,0,0,11.3449,5.005l7.4372-18.79Z"/><path class="cls-7" d="M383.1861,277.2542s15.1867,28.14,18.9052,39.7895a19.0483,19.0483,0,0,1-11.477,4.7266l-13.5627-25.7364Z"/><path class="cls-7" d="M377.7216,339.3235s-4.589,7.1488-17.5317,11.8114l-4.06-9.7455-7.161,9.8742s-11.1622-4.1133-15.555-11.5883l48.4334-48.3767Z"/><path class="cls-44" d="M353.3658,283.424a1.02,1.02,0,0,0,.9947,1.0528,1.0354,1.0354,0,0,0,1.1109-.9429,1.0211,1.0211,0,0,0-.9948-1.0531A1.0353,1.0353,0,0,0,353.3658,283.424Z"/><path class="cls-44" d="M353.5872,292.5877a1.0206,1.0206,0,0,0,.9948,1.0529,1.0356,1.0356,0,0,0,1.1108-.9429,1.0209,1.0209,0,0,0-.9947-1.0531A1.0354,1.0354,0,0,0,353.5872,292.5877Z"/><path class="cls-44" d="M353.3753,304.0168a1.0206,1.0206,0,0,0,.9947,1.0529,1.0351,1.0351,0,0,0,1.1109-.9429,1.021,1.021,0,0,0-.9947-1.053A1.0355,1.0355,0,0,0,353.3753,304.0168Z"/><path class="cls-44" d="M353.4973,314.8915a1.0209,1.0209,0,0,0,.995,1.0529,1.0352,1.0352,0,0,0,1.1106-.9429,1.0205,1.0205,0,0,0-.9948-1.0529A1.0353,1.0353,0,0,0,353.4973,314.8915Z"/><path class="cls-44" d="M354.928,336.9887a1.0208,1.0208,0,0,0,.9947,1.053,1.0351,1.0351,0,0,0,1.1108-.943,1.0206,1.0206,0,0,0-.9947-1.053A1.0353,1.0353,0,0,0,354.928,336.9887Z"/><polygon class="cls-44" points="360.805 298.997 374.174 299.247 374.21 297.476 360.842 297.226 360.805 298.997"/><path class="cls-44" d="M349.3184,325.5322a.9631.9631,0,0,0,.9386.9935.977.977,0,0,0,1.0483-.89.9636.9636,0,0,0-.9386-.9938A.9772.9772,0,0,0,349.3184,325.5322Z"/><path class="cls-45" d="M366.732,327.43c-.0213.6288-.89,1.1125-1.94,1.08l-60.3516-1.8485c-1.05-.0321-1.8837-.5679-1.8622-1.1967h0c.0214-.6288.89-1.1125,1.94-1.08l60.3517,1.8485c1.05.0321,1.8833.5678,1.8619,1.1967Z"/><path class="cls-46" d="M364.87,326.2331l-60.3517-1.8485,41.9859,1.2859a1.5706,1.5706,0,0,1,1.4856,1.5886,1.4769,1.4769,0,0,1-.2428.7289l17.0454.5222c1.05.0321,1.9182-.4516,1.94-1.08S365.92,326.2652,364.87,326.2331Z"/><path class="cls-47" d="M348.7516,324.39a1.6719,1.6719,0,0,1-1.7586,1.57l-43.7922-1.0126a1.6613,1.6613,0,0,1-1.6758-1.6495l.8076-31.3917a1.6721,1.6721,0,0,1,1.7588-1.57l43.792,1.0127a1.6613,1.6613,0,0,1,1.6759,1.6495Z"/><path class="cls-45" d="M347.8834,291.3487l-.5384-.0124a1.5845,1.5845,0,0,1,.8424,1.4021l-.8142,31.6387a1.6584,1.6584,0,0,1-1.6033,1.5545l1.2228.0283a1.672,1.672,0,0,0,1.7589-1.57l.8077-31.3915A1.6613,1.6613,0,0,0,347.8834,291.3487Z"/><path class="cls-35" d="M372.2069,322.9245l-5.0973,1.2821a6.875,6.875,0,0,0-3.0919-1.1813c-.05-.0071-.0991-.016-.1482-.0193a5.7815,5.7815,0,0,0-3.3981.7916s-4.5987.2427-4.761,2.1279l4.3427.2309a12.5372,12.5372,0,0,0-.8616,2.1367l-5.4292-.1361c3.0439,5.2327,13.7833,1.2117,13.7833,1.2117l5.6724-1.0756Z"/><path class="cls-43" d="M387.4057,313.7489s-9.9237,7.3814-18.0967,9.64c0,0,.1266,4.25,2.4144,6.9755,0,0,21.5931-3.0157,29.1185-8.5938,0,0,3.8962-1.8468-.6793-10.2263C398.41,308.3347,387.4057,313.7489,387.4057,313.7489Z"/><path class="cls-37" d="M343.92,242.1205a4.9607,4.9607,0,0,1-.7935,1.79,2.8616,2.8616,0,0,1-1.6791,1.2353,2.1053,2.1053,0,0,1-1.9717-.7917,5.7451,5.7451,0,0,1-.5527-.8356c-.1179-.3107-.2539-.6052-.346-.9159.2353.234.4265.4841.6359.7179.22.22.4355.44.6543.6346a1.7417,1.7417,0,0,0,1.44.4886,2.91,2.91,0,0,0,1.3913-.89A16.2012,16.2012,0,0,0,343.92,242.1205Z"/><path class="cls-37" d="M357.5906,241.9634a4.9609,4.9609,0,0,1-.7936,1.79,2.8616,2.8616,0,0,1-1.6791,1.2353,2.1049,2.1049,0,0,1-1.9715-.7918,5.7421,5.7421,0,0,1-.5528-.8355c-.1179-.3108-.2539-.6053-.3459-.9159.2351.2339.4265.484.6358.7178.22.22.4355.44.6542.6346a1.7426,1.7426,0,0,0,1.4406.4887,2.91,2.91,0,0,0,1.3912-.89A16.19,16.19,0,0,0,357.5906,241.9634Z"/></g></g></svg>